<svg width="40" height="41" viewBox="0 0 40 41" fill="none" xmlns="http://www.w3.org/2000/svg">
<circle cx="20" cy="21" r="19.5" stroke="#FFFAE9" stroke-width="2"/>
<mask id="mask0_202_201" style="mask-type:alpha" maskUnits="userSpaceOnUse" x="0" y="0" width="40" height="40">
<g style="mix-blend-mode:multiply">
<circle cx="20" cy="20" r="20" fill="white"/>
</g>
</mask>
<g mask="url(#mask0_202_201)">
<path d="M35.4691 40.4091H35.469H5.25802C5.12316 40.409 4.99121 40.3739 4.87551 40.3082C4.75986 40.2425 4.66498 40.1488 4.59948 40.0373C4.53403 39.9258 4.49997 39.8001 4.5 39.6727C4.50003 39.5454 4.53413 39.4198 4.59957 39.3084C6.93404 35.3451 10.5283 32.5072 14.7208 31.1618L15.7875 30.8195L14.8203 30.2541C12.7821 29.0625 11.2004 27.248 10.3161 25.0905C9.43182 22.9333 9.29324 20.5511 9.92129 18.3093C10.5494 16.0675 11.9099 14.0883 13.796 12.6768C15.6823 11.2653 17.9895 10.5 20.3632 10.5C22.737 10.5 25.0442 11.2653 26.9304 12.6768C28.8166 14.0883 30.1771 16.0675 30.8052 18.3093C31.4332 20.5511 31.2947 22.9333 30.4104 25.0905C29.5261 27.248 27.9443 29.0625 25.9061 30.2541L24.939 30.8195L26.0057 31.1618C30.1982 32.5072 33.7925 35.3452 36.127 39.3086L36.1271 39.3087C36.1928 39.4202 36.2271 39.5459 36.2273 39.6733C36.2274 39.8006 36.1936 39.9262 36.1284 40.0376C36.0628 40.1492 35.9678 40.2429 35.852 40.3086C35.7361 40.3742 35.604 40.4091 35.4691 40.4091Z" stroke="#150D0D" fill="#FFFAE9"/>
</g>
</svg>
