<svg width="677" height="16" viewBox="0 0 677 16" fill="none" xmlns="http://www.w3.org/2000/svg">
<path fill-rule="evenodd" clip-rule="evenodd" d="M370.785 0.821288L383.562 15.0177L396.339 0.821289L370.785 0.821288ZM383.562 15.0178L370.785 0.821403L358.008 15.0178L383.562 15.0178Z" fill="#5C95D9"/>
<path fill-rule="evenodd" clip-rule="evenodd" d="M166.357 0.821288L179.134 15.0177L191.911 0.821289L166.357 0.821288ZM179.134 15.0178L166.357 0.821403L153.58 15.0178L179.134 15.0178Z" fill="#5C95D9"/>
<path fill-rule="evenodd" clip-rule="evenodd" d="M268.571 0.821288L281.348 15.0177L294.125 0.821289L268.571 0.821288ZM281.348 15.0178L268.571 0.821403L255.794 15.0178L281.348 15.0178Z" fill="#5C95D9"/>
<path fill-rule="evenodd" clip-rule="evenodd" d="M76.9195 15.0177L89.6963 0.821289L64.1428 0.821288L64.1428 0.821403L51.3661 15.0178L76.9196 15.0178L76.9195 15.0177Z" fill="#5C95D9"/>
<path fill-rule="evenodd" clip-rule="evenodd" d="M319.678 0.821288L332.455 15.0177L345.232 0.821289L319.678 0.821288ZM332.455 15.0178L319.678 0.821403L306.902 15.0178L332.455 15.0178Z" fill="#E84B4B"/>
<path fill-rule="evenodd" clip-rule="evenodd" d="M128.026 15.0177L140.803 0.821289L115.25 0.821288L115.25 0.821403L102.473 15.0178L128.027 15.0178L128.026 15.0177Z" fill="#E84B4B"/>
<path fill-rule="evenodd" clip-rule="evenodd" d="M217.464 0.821288L230.241 15.0177L243.018 0.821289L217.464 0.821288ZM230.241 15.0178L217.464 0.821403L204.687 15.0178L230.241 15.0178Z" fill="#E84B4B"/>
<path fill-rule="evenodd" clip-rule="evenodd" d="M13.0358 0.821509L13.0356 0.821288L38.5891 0.821289L25.8124 15.0176L25.8126 15.0178L0.259101 15.0178L13.0358 0.821509Z" fill="#E84B4B"/>
<path fill-rule="evenodd" clip-rule="evenodd" d="M345.232 0.821288L358.008 15.0177L370.785 0.821289L345.232 0.821288ZM358.008 15.0178L345.232 0.821403L332.455 15.0178L358.008 15.0178Z" fill="#FFFAE9"/>
<path fill-rule="evenodd" clip-rule="evenodd" d="M140.803 0.821288L153.58 15.0177L166.357 0.821289L140.803 0.821288ZM153.58 15.0178L140.803 0.821403L128.027 15.0178L153.58 15.0178Z" fill="#FFFAE9"/>
<path fill-rule="evenodd" clip-rule="evenodd" d="M243.018 0.821288L255.795 15.0177L268.571 0.821289L243.018 0.821288ZM255.794 15.0178L243.018 0.821403L230.241 15.0178L255.794 15.0178Z" fill="#FFFAE9"/>
<path fill-rule="evenodd" clip-rule="evenodd" d="M38.5893 0.821288L51.3661 15.0177L64.1428 0.821289L38.5893 0.821288ZM51.366 15.0178L38.5892 0.821403L25.8124 15.0178L51.366 15.0178Z" fill="#FFFAE9"/>
<path fill-rule="evenodd" clip-rule="evenodd" d="M409.116 15.0177L421.892 0.821289L396.339 0.821288L396.339 0.821403L383.562 15.0178L409.116 15.0178L409.116 15.0177Z" fill="#FFFAE9"/>
<path fill-rule="evenodd" clip-rule="evenodd" d="M204.687 15.0177L217.464 0.821289L191.91 0.821288L191.91 0.821403L179.134 15.0178L204.687 15.0178L204.687 15.0177Z" fill="#FFFAE9"/>
<path fill-rule="evenodd" clip-rule="evenodd" d="M294.125 0.821288L306.901 15.0177L319.678 0.821289L294.125 0.821288ZM306.901 15.0178L294.125 0.821403L281.348 15.0178L306.901 15.0178Z" fill="#FFFAE9"/>
<path fill-rule="evenodd" clip-rule="evenodd" d="M89.6965 0.821288L102.473 15.0177L115.25 0.821289L89.6965 0.821288ZM102.473 15.0178L89.6965 0.821403L76.9197 15.0178L102.473 15.0178Z" fill="#FFFAE9"/>
<path fill-rule="evenodd" clip-rule="evenodd" d="M573.794 0.821288L586.571 15.0177L599.347 0.821289L573.794 0.821288ZM586.571 15.0178L573.794 0.821403L561.017 15.0178L586.571 15.0178Z" fill="#5C95D9"/>
<path fill-rule="evenodd" clip-rule="evenodd" d="M471.58 0.821288L484.357 15.0177L497.133 0.821289L471.58 0.821288ZM484.356 15.0178L471.58 0.821403L458.803 15.0178L484.356 15.0178Z" fill="#5C95D9"/>
<path fill-rule="evenodd" clip-rule="evenodd" d="M522.687 0.821288L535.463 15.0177L548.24 0.821289L522.687 0.821288ZM535.463 15.0178L522.687 0.821403L509.91 15.0178L535.463 15.0178Z" fill="#E84B4B"/>
<path fill-rule="evenodd" clip-rule="evenodd" d="M637.678 15.0177L650.454 0.821289L624.901 0.821288L624.901 0.821403L612.124 15.0178L637.678 15.0178L637.678 15.0177Z" fill="#E84B4B"/>
<path fill-rule="evenodd" clip-rule="evenodd" d="M433.249 15.0177L446.026 0.821289L420.473 0.821288L420.473 0.821403L407.696 15.0178L433.249 15.0178L433.249 15.0177Z" fill="#E84B4B"/>
<path fill-rule="evenodd" clip-rule="evenodd" d="M561.017 15.0177L573.794 0.821289L548.24 0.821288L548.24 0.821403L535.464 15.0178L561.017 15.0178L561.017 15.0177Z" fill="#FFFAE9"/>
<path fill-rule="evenodd" clip-rule="evenodd" d="M650.455 0.821288L663.231 15.0177L676.008 0.821289L650.455 0.821288ZM663.231 15.0178L650.455 0.821403L637.678 15.0178L663.231 15.0178Z" fill="#FFFAE9"/>
<path fill-rule="evenodd" clip-rule="evenodd" d="M446.026 0.821288L458.803 15.0177L471.58 0.821289L446.026 0.821288ZM458.803 15.0178L446.026 0.821403L433.249 15.0178L458.803 15.0178Z" fill="#FFFAE9"/>
<path fill-rule="evenodd" clip-rule="evenodd" d="M599.347 0.821288L612.124 15.0177L624.901 0.821289L599.347 0.821288ZM612.124 15.0178L599.347 0.821403L586.57 15.0178L612.124 15.0178Z" fill="#FFFAE9"/>
<path fill-rule="evenodd" clip-rule="evenodd" d="M509.91 15.0177L522.687 0.821289L497.133 0.821288L497.133 0.821403L484.357 15.0178L509.91 15.0178L509.91 15.0177Z" fill="#FFFAE9"/>
</svg>
