<svg width="233" height="165" viewBox="0 0 233 165" fill="none" xmlns="http://www.w3.org/2000/svg">
<path fill-rule="evenodd" clip-rule="evenodd" d="M83.0278 0.876221H10.9033L10.9033 0.876263H0.217773L0.216025 10.8156H10.9016L10.8946 50.5727H10.8945L10.8862 97.7843H210.077L210.104 97.7844C223.076 97.7844 224.01 50.5755 210.113 50.5727H184.527L184.529 40.6336H189.871L189.874 23.2398H155.148L155.145 40.6336H163.159L163.157 50.5727H83.0191L83.0261 10.8156H93.7108L93.7125 0.876263L83.0278 0.876221ZM61.6535 20.7547H37.612L37.6067 50.5726H61.6482L61.6535 20.7547Z" fill="#e84b4be4"/>
<path fill-rule="evenodd" clip-rule="evenodd" d="M2.86914 102.754L215.582 102.754L215.585 102.754L232.596 137.542L215.579 137.542L213.864 137.542C213.885 137.954 213.895 138.368 213.895 138.784C213.893 153.194 201.333 164.875 185.842 164.875C170.352 164.875 157.796 153.194 157.799 138.784C157.799 138.368 157.809 137.954 157.83 137.542L147.081 137.542C147.102 137.954 147.112 138.368 147.112 138.784C147.11 153.194 134.55 164.875 119.059 164.875C103.569 164.875 91.0129 153.194 91.0154 138.784C91.0155 138.368 91.026 137.954 91.0469 137.542L80.2999 137.542C80.3206 137.954 80.331 138.368 80.331 138.784C80.3284 153.194 67.7687 164.875 52.2779 164.875C36.7872 164.875 24.2316 153.194 24.2341 138.784C24.2342 138.368 24.2447 137.954 24.2656 137.542L2.86302 137.542L2.86914 102.754ZM176.593 137.542C176.531 137.948 176.498 138.362 176.498 138.784C176.498 143.587 180.683 147.481 185.846 147.481C191.01 147.481 195.196 143.587 195.197 138.784C195.197 138.362 195.165 137.948 195.103 137.542L176.593 137.542ZM128.322 137.542L109.812 137.542C109.749 137.948 109.717 138.362 109.717 138.784C109.716 143.587 113.901 147.481 119.065 147.481C124.229 147.481 128.415 143.587 128.416 138.784C128.416 138.362 128.384 137.948 128.322 137.542ZM43.0287 137.542C42.9662 137.948 42.9339 138.362 42.9338 138.784C42.933 143.587 47.1182 147.481 52.2818 147.481C57.4453 147.481 61.6319 143.587 61.6328 138.784C61.6328 138.362 61.6006 137.948 61.5383 137.542L43.0287 137.542Z" fill="#e84b4be4"/>
</svg>
