<svg width="28" height="32" viewBox="0 0 28 32" fill="none" xmlns="http://www.w3.org/2000/svg">
<path fill-rule="evenodd" clip-rule="evenodd" d="M18.377 27.5234L11.9469 29.3355C12.0598 29.7645 12.257 30.1668 12.527 30.5187C12.7971 30.8707 13.1345 31.1654 13.5196 31.3855C13.9047 31.6057 14.3298 31.747 14.7701 31.8011C15.2104 31.8553 15.6571 31.8212 16.0841 31.7009C16.511 31.5805 16.9098 31.3764 17.257 31.1003C17.6042 30.8242 17.893 30.4817 18.1064 30.0929C18.3199 29.704 18.4537 29.2765 18.5002 28.8354C18.5466 28.3942 18.5048 27.9482 18.377 27.5234ZM27.3987 22.367L26.9462 20.7618L25.2135 20.0917C24.0266 19.6335 22.8517 18.5349 22.6031 17.6527L20.1131 8.81939C19.3732 6.28672 17.6633 4.14853 15.3552 2.86981C13.7319 1.97045 11.905 1.54739 10.0803 1.62454C9.98062 1.46624 9.8579 1.31877 9.7124 1.18705C8.85388 0.409814 7.52785 0.475662 6.75063 1.33412C6.42588 1.69283 6.24833 2.13316 6.2143 2.58097C4.36498 3.45789 2.8156 4.88759 1.79354 6.69176C0.493034 8.98745 0.151504 11.7038 0.843222 14.25L3.33171 23.0825C3.58038 23.9647 3.15222 25.515 2.37925 26.5256L1.25077 28.0033L1.70325 29.6086L27.3987 22.367Z" fill="#5C95D9"/>
</svg>
