<svg width="70" height="63" viewBox="0 0 70 63" xmlns="http://www.w3.org/2000/svg">
<path d="M67.5906 8.91399C64.6728 2.9166 56.2616 -1.99327 46.4735 0.858246C41.7963 2.20723 37.7147 5.10304 34.8955 9.07256C32.0802 5.10031 28.0013 2.20054 23.3254 0.847021C13.5183 -1.97039 5.12418 2.88773 2.20051 8.88228C-1.90134 17.2746 -0.205772 26.7164 7.24374 36.9459C13.0814 44.9506 21.4256 53.0656 33.54 62.4906C33.9228 62.7895 34.3945 62.9521 34.8803 62.9523C35.366 62.9525 35.8378 62.7905 36.221 62.4919C48.3227 53.1004 56.6965 45.059 62.542 36.9727C69.9796 26.7504 71.6843 17.3103 67.5906 8.91399Z" fill="#E84B4B"/>
</svg>
