<svg width="40" height="41" viewBox="0 0 40 41" fill="none" xmlns="http://www.w3.org/2000/svg">
<mask id="path-1-inside-1_109_1235" fill="white">
<path d="M38.9101 38.4697L27.0565 26.1135C29.2658 23.3721 30.5974 19.8451 30.5974 15.9939C30.5974 7.26839 23.77 0.194824 15.3483 0.194824C6.92646 0.194824 0.0991211 7.26839 0.0991211 15.9939C0.0991211 24.7194 6.92646 31.793 15.3483 31.793C19.1746 31.793 22.6697 30.3294 25.3474 27.9165L37.1844 40.2575C37.6608 40.7511 38.4337 40.7511 38.91 40.2575C39.3858 39.764 39.3858 38.9639 38.91 38.4697H38.9101ZM15.3483 29.286C8.2629 29.286 2.51885 23.3348 2.51885 15.9939C2.51885 8.65302 8.2629 2.70182 15.3483 2.70182C22.4336 2.70182 28.1777 8.65302 28.1777 15.9939C28.1777 23.3348 22.4336 29.286 15.3483 29.286Z"/>
</mask>
<path d="M38.9101 38.4697L27.0565 26.1135C29.2658 23.3721 30.5974 19.8451 30.5974 15.9939C30.5974 7.26839 23.77 0.194824 15.3483 0.194824C6.92646 0.194824 0.0991211 7.26839 0.0991211 15.9939C0.0991211 24.7194 6.92646 31.793 15.3483 31.793C19.1746 31.793 22.6697 30.3294 25.3474 27.9165L37.1844 40.2575C37.6608 40.7511 38.4337 40.7511 38.91 40.2575C39.3858 39.764 39.3858 38.9639 38.91 38.4697H38.9101ZM15.3483 29.286C8.2629 29.286 2.51885 23.3348 2.51885 15.9939C2.51885 8.65302 8.2629 2.70182 15.3483 2.70182C22.4336 2.70182 28.1777 8.65302 28.1777 15.9939C28.1777 23.3348 22.4336 29.286 15.3483 29.286Z" fill="#382424"/>
<path d="M38.9101 38.4697V39.4697H41.2551L39.6317 37.7775L38.9101 38.4697ZM27.0565 26.1135L26.2779 25.4861L25.7259 26.171L26.3349 26.8058L27.0565 26.1135ZM25.3474 27.9165L26.0691 27.2243L25.3981 26.5248L24.678 27.1736L25.3474 27.9165ZM37.1844 40.2575L36.4627 40.9497L36.4649 40.952L37.1844 40.2575ZM38.91 40.2575L39.6296 40.952L39.63 40.9515L38.91 40.2575ZM38.91 38.4697V37.4697H36.5591L38.1897 39.1633L38.91 38.4697ZM39.6317 37.7775L27.7782 25.4213L26.3349 26.8058L38.1884 39.162L39.6317 37.7775ZM27.8352 26.741C30.1844 23.826 31.5974 20.0787 31.5974 15.9939H29.5974C29.5974 19.6115 28.3473 22.9182 26.2779 25.4861L27.8352 26.741ZM31.5974 15.9939C31.5974 6.7498 24.3554 -0.805176 15.3483 -0.805176V1.19482C23.1847 1.19482 29.5974 7.78699 29.5974 15.9939H31.5974ZM15.3483 -0.805176C6.34108 -0.805176 -0.900879 6.7498 -0.900879 15.9939H1.09912C1.09912 7.78699 7.51185 1.19482 15.3483 1.19482V-0.805176ZM-0.900879 15.9939C-0.900879 25.238 6.34108 32.793 15.3483 32.793V30.793C7.51185 30.793 1.09912 24.2008 1.09912 15.9939H-0.900879ZM15.3483 32.793C19.4361 32.793 23.1663 31.228 26.0168 28.6594L24.678 27.1736C22.1731 29.4308 18.9131 30.793 15.3483 30.793V32.793ZM24.6257 28.6088L36.4627 40.9497L37.9061 39.5653L26.0691 27.2243L24.6257 28.6088ZM36.4649 40.952C37.3344 41.853 38.76 41.853 39.6296 40.952L38.1905 39.5631C38.1447 39.6106 38.0938 39.6277 38.0472 39.6277C38.0006 39.6277 37.9498 39.6106 37.904 39.5631L36.4649 40.952ZM39.63 40.9515C40.4794 40.0704 40.4788 38.6573 39.6304 37.7762L38.1897 39.1633C38.2928 39.2705 38.2922 39.4575 38.1901 39.5635L39.63 40.9515ZM38.91 39.4697H38.9101V37.4697H38.91V39.4697ZM15.3483 28.286C8.84828 28.286 3.51885 22.8162 3.51885 15.9939H1.51885C1.51885 23.8534 7.67751 30.286 15.3483 30.286V28.286ZM3.51885 15.9939C3.51885 9.17162 8.84828 3.70182 15.3483 3.70182V1.70182C7.67751 1.70182 1.51885 8.13443 1.51885 15.9939H3.51885ZM15.3483 3.70182C21.8482 3.70182 27.1777 9.17162 27.1777 15.9939H29.1777C29.1777 8.13443 23.019 1.70182 15.3483 1.70182V3.70182ZM27.1777 15.9939C27.1777 22.8162 21.8482 28.286 15.3483 28.286V30.286C23.019 30.286 29.1777 23.8534 29.1777 15.9939H27.1777Z" fill="#150D0D" mask="url(#path-1-inside-1_109_1235)"/>
</svg>
