<svg width="40" height="40" viewBox="0 0 40 40" fill="none" xmlns="http://www.w3.org/2000/svg">
<circle cx="20" cy="20" r="20" fill="#FFFAE9"/>
<mask id="mask0_38_392" style="mask-type:alpha" maskUnits="userSpaceOnUse" x="0" y="0" width="40" height="40">
<circle cx="20" cy="20" r="20" fill="#FFFAE9"/>
</mask>
<g mask="url(#mask0_38_392)">
<path d="M36.1959 40.291C36.0854 40.479 35.9264 40.635 35.735 40.7435C35.5436 40.852 35.3265 40.9091 35.1054 40.9091H4.89399C4.67314 40.9089 4.45623 40.8516 4.26504 40.743C4.07386 40.6344 3.91513 40.4783 3.8048 40.2904C3.69447 40.1026 3.63642 39.8895 3.63647 39.6726C3.63653 39.4557 3.69469 39.2426 3.80512 39.0548C6.20158 34.9862 9.89462 32.0687 14.2045 30.6858C12.0726 29.4394 10.4163 27.5404 9.48989 25.2802C8.56347 23.02 8.41817 20.5236 9.0763 18.1745C9.73443 15.8253 11.1596 13.7533 13.1329 12.2765C15.1063 10.7998 17.5187 10 19.9997 10C22.4807 10 24.8931 10.7998 26.8665 12.2765C28.8398 13.7533 30.265 15.8253 30.9231 18.1745C31.5813 20.5236 31.436 23.02 30.5095 25.2802C29.5831 27.5404 27.9268 29.4394 25.795 30.6858C30.1048 32.0687 33.7979 34.9862 36.1943 39.0548C36.305 39.2426 36.3635 39.4557 36.3637 39.6727C36.364 39.8897 36.3061 40.1029 36.1959 40.291Z" fill="#3C95D9"/>
</g>
</svg>
