<svg width="98" height="98" viewBox="0 0 98 98" xmlns="http://www.w3.org/2000/svg">
<path d="M48.5613 2.76404C49.2006 1.94207 50.0442 1.30209 51.008 0.907926C51.9718 0.513764 53.0221 0.379203 54.0541 0.517664C55.0861 0.656126 56.0638 1.06277 56.8897 1.69703C57.7155 2.3313 58.3606 3.17101 58.7605 4.1324L68.9186 28.5585L93.8039 37.5501C94.7826 37.9044 95.6515 38.5091 96.3237 39.3039C96.9959 40.0987 97.448 41.0558 97.635 42.0798C97.822 43.1039 97.7374 44.159 97.3894 45.1401C97.0415 46.1212 96.4425 46.9939 95.6521 47.6713L75.5579 64.8806L74.7021 91.3236C74.6686 92.3649 74.3625 93.3792 73.8144 94.2651C73.2663 95.1511 72.4954 95.8778 71.5786 96.3726C70.6618 96.8675 69.6313 97.1132 68.5898 97.0852C67.5484 97.0572 66.5326 96.7564 65.6437 96.213L43.0663 82.4166L17.6507 89.7741C16.6501 90.064 15.5909 90.0863 14.5789 89.8389C13.5669 89.5914 12.6376 89.0827 11.8836 88.3637C11.1297 87.6448 10.5776 86.7406 10.2824 85.7414C9.98723 84.7423 9.95931 83.6833 10.2015 82.67L16.3458 56.9365L1.4976 35.044C0.912531 34.1821 0.563777 33.1818 0.486159 32.143C0.408541 31.1042 0.604774 30.0632 1.05527 29.1239C1.50576 28.1847 2.19475 27.38 3.05346 26.7903C3.91217 26.2006 4.91055 25.8464 5.94893 25.7631L32.3242 23.6489L48.5613 2.76404Z" fill="#DD960A"/>
</svg>
