<svg id="Layer_1" data-name="Layer 1" xmlns="http://www.w3.org/2000/svg" viewBox="0 0 527 393.11"><defs><style>.cls-1{fill:#ffb7b7;}.cls-2{fill:none;stroke-width:8px;}.cls-2,.cls-3{stroke:#e84b4b;}.cls-3,.cls-5{fill:#e84b4b;}.cls-4{fill:#fffae9;}</style></defs><rect class="cls-1" width="527" height="393.11"/><path class="cls-2" d="M46.59,95c62.17-16,59.52,26.62,97.88,21.29" transform="translate(46)"/><path class="cls-2" d="M41,114.24c62.49-16,59.83,26.62,98.39,21.29" transform="translate(46)"/><path class="cls-2" d="M35.94,133c62.17-16,59.52,26.61,97.88,21.29" transform="translate(46)"/><path class="cls-2" d="M30.36,151.7c62.49-15.65,59.83,26.08,98.39,20.87" transform="translate(46)"/><path class="cls-2" d="M27.83,170c62.16-16,59.52,26.61,97.88,21.29" transform="translate(46)"/><path class="cls-2" d="M22.25,188.8c62.49-16,59.83,26.61,98.38,21.29" transform="translate(46)"/><path class="cls-2" d="M17.18,207.05c62.16-16,59.52,26.62,97.88,21.29" transform="translate(46)"/><path class="cls-2" d="M319.44,145.69c62.49-16,59.83,26.61,98.38,21.29" transform="translate(46)"/><path class="cls-2" d="M314.37,165.39c62.16-15.64,59.52,26.08,97.88,20.87" transform="translate(46)"/><path class="cls-2" d="M308.79,183.72c62.49-16,59.83,26.62,98.38,21.29" transform="translate(46)"/><path class="cls-2" d="M303.72,202.49c62.16-16,59.52,26.61,97.88,21.29" transform="translate(46)"/><path class="cls-2" d="M300.67,220.75c62.49-16,59.83,26.61,98.39,21.29" transform="translate(46)"/><path class="cls-2" d="M295.6,239.51c62.17-16,59.52,26.61,97.88,21.29" transform="translate(46)"/><path class="cls-2" d="M290.53,258.2c62.17-15.64,59.52,26.08,97.88,20.87" transform="translate(46)"/><rect class="cls-3" x="136.91" y="111.69" width="157.45" height="143.97" transform="translate(37.54 356.91) rotate(-78.13)"/><path class="cls-4" d="M180,193.16l-3.34-.73,6.73-31,7.21,1.56a8.25,8.25,0,0,1,5.25,3,6.45,6.45,0,0,1,.89,5.34L195,179.42a6.58,6.58,0,0,1-3,4.54c-1.52.87-3.54,1-6,.49l-3.87-.84Zm11.63-14.47,1.77-8.11a3.72,3.72,0,0,0-.49-3.06,4.57,4.57,0,0,0-2.93-1.68L186.1,165l-3.42,15.75,3.87.84C189.38,182.2,191.07,181.24,191.62,178.69ZM209,167l5,1.09.29,32.55-3.34-.72-.07-7.52-9.12-2-3.18,6.81-3.34-.72Zm1.68,4.27L203,187.66l7.83,1.7Zm17.58,29.4-.62,2.87-8.12-1.77.63-2.86,2.38.52,5.49-25.3-2.38-.52.62-2.86,8.11,1.76-.62,2.87-2.39-.52-5.49,25.29Zm15.16,6.29-7.69-1.67,6.74-31,7.68,1.67a8.24,8.24,0,0,1,5.25,3,6.47,6.47,0,0,1,.89,5.35l-3.83,17.66a6.62,6.62,0,0,1-3,4.55A8.46,8.46,0,0,1,243.45,206.93Zm5.69-5.76L253,183.51a3.74,3.74,0,0,0-.57-2.92,4.19,4.19,0,0,0-2.85-1.82l-4.35-.94-5.49,25.29,4.35.95a4.27,4.27,0,0,0,3.34-.43A3.77,3.77,0,0,0,249.14,201.17Z" transform="translate(46)"/><path class="cls-4" d="M203.76,124.62l2-9.39,1.26.27-2,9.4a1.69,1.69,0,0,0,.06,1.11,1.35,1.35,0,0,0,1,.62,2.17,2.17,0,0,0,1.58-.3,1.74,1.74,0,0,0,.92-1l2-9,1.25.27-2.52,11.63-.54-.11-.22-1.25a3.32,3.32,0,0,1-1.24.82,2.57,2.57,0,0,1-1.43.08C204.09,127.32,203.39,126.29,203.76,124.62ZM219,127.94q-.54,2.51-3.57,1.85c-2-.44-2.84-1.49-2.48-3.16l.33-1.53,1.25.28-.34,1.59a1.21,1.21,0,0,0,.23,1.1,2.7,2.7,0,0,0,2.65.57,1.16,1.16,0,0,0,.65-.87,2.63,2.63,0,0,0,.07-1,2,2,0,0,0-.36-.9L215,122.09a3.52,3.52,0,0,1-.54-1.24,4.25,4.25,0,0,1,.09-1.38,2.43,2.43,0,0,1,1.14-1.69,3.41,3.41,0,0,1,2.4-.17q2.88.63,2.33,3.13l-.33,1.52-1.25-.27.35-1.59a1.3,1.3,0,0,0-.21-1.1,1.93,1.93,0,0,0-1.18-.63,2,2,0,0,0-1.35.08,1.28,1.28,0,0,0-.62.9,3.22,3.22,0,0,0-.09,1,1.93,1.93,0,0,0,.39.87l2.54,3.78a3.51,3.51,0,0,1,.47,1.26A3.71,3.71,0,0,1,219,127.94Zm11.73,2.55.22-1,1.25.27-.21,1a2.48,2.48,0,0,1-1.14,1.7,3.37,3.37,0,0,1-2.34.17,3.41,3.41,0,0,1-2.08-1.13,2.39,2.39,0,0,1-.35-2l1.55-7.16a2.4,2.4,0,0,1,1.14-1.69,3.29,3.29,0,0,1,2.34-.18,3.35,3.35,0,0,1,2.08,1.14,2.36,2.36,0,0,1,.35,2l-.37,1.7L232,125l.37-1.7c.2-1-.26-1.56-1.39-1.8s-1.81.1-2,1.06l-1.56,7.16c-.21.95.26,1.55,1.39,1.8S230.56,131.44,230.76,130.49Zm4.21.91,2-9.4,1.26.28-2,9.39a1.79,1.79,0,0,0,.05,1.12,1.38,1.38,0,0,0,1,.61,2.1,2.1,0,0,0,1.58-.29,1.72,1.72,0,0,0,.92-1l2-9,1.25.27-2.53,11.64-.53-.12-.22-1.24a3.22,3.22,0,0,1-1.25.81,2.63,2.63,0,0,1-1.42.09Q234.44,133.91,235,131.4Zm15.28,3.32c-.37,1.67-1.55,2.28-3.57,1.84s-2.84-1.49-2.48-3.16l.33-1.52,1.25.27-.35,1.6a1.25,1.25,0,0,0,.24,1.1,2.69,2.69,0,0,0,2.64.57,1.19,1.19,0,0,0,.66-.87,2.65,2.65,0,0,0,.07-1,2.26,2.26,0,0,0-.36-.91l-2.49-3.76a3.48,3.48,0,0,1-.53-1.24,4,4,0,0,1,.09-1.39,2.36,2.36,0,0,1,1.14-1.68,3.38,3.38,0,0,1,2.39-.17c1.93.41,2.7,1.46,2.34,3.13l-.33,1.52-1.25-.27.35-1.6a1.24,1.24,0,0,0-.22-1.09,1.88,1.88,0,0,0-1.17-.63,2,2,0,0,0-1.35.08,1.26,1.26,0,0,0-.63.9,2.89,2.89,0,0,0-.08,1,2,2,0,0,0,.39.87l2.53,3.77a3.59,3.59,0,0,1,.48,1.27A4.22,4.22,0,0,1,250.25,134.72Zm5-8.76,3.94.85-.23,1.08-2.69-.58-1.86,8.57a1.4,1.4,0,0,0,.07.89,1,1,0,0,0,1.46.34,1.46,1.46,0,0,0,.44-.8l.46-2.13,1.25.27-.44,2.06a2.41,2.41,0,0,1-1,1.6,2.21,2.21,0,0,1-1.74.24,2.37,2.37,0,0,1-1.52-.95,2.43,2.43,0,0,1-.23-1.86Zm12.31,5L266,138.13a2.4,2.4,0,0,1-1.17,1.7,4.43,4.43,0,0,1-4.55-1,2.38,2.38,0,0,1-.37-2l1.56-7.16a2.35,2.35,0,0,1,1.15-1.68,4.34,4.34,0,0,1,4.56,1A2.31,2.31,0,0,1,267.55,131Zm-2.8,6.89,1.55-7.16c.21-.95-.29-1.56-1.48-1.82s-1.89.09-2.1,1.05l-1.55,7.16c-.21.95.28,1.56,1.48,1.82S264.54,138.82,264.75,137.86Zm5.32,3.5-1.25-.27,2.53-11.63.53.11.2,1.24a3,3,0,0,1,1.21-.8,2.43,2.43,0,0,1,1.41-.11c1.2.26,1.88.87,2,1.81a2.66,2.66,0,0,1,2.54-.82,2.28,2.28,0,0,1,2,3.06l-2,9.39-1.25-.27,2-9.4c.21-.95-.12-1.52-1-1.71a2.06,2.06,0,0,0-1.53.31,1.74,1.74,0,0,0-.88,1l-2,9-1.26-.27,2-9.4c.21-1-.11-1.52-1-1.71a2.09,2.09,0,0,0-1.53.29,1.62,1.62,0,0,0-.87,1Zm18.7,1.72c-.36,1.67-1.55,2.28-3.57,1.85s-2.84-1.5-2.48-3.17l.33-1.52,1.25.27-.34,1.6a1.24,1.24,0,0,0,.23,1.1,2.12,2.12,0,0,0,1.25.64,2.07,2.07,0,0,0,1.4-.07,1.19,1.19,0,0,0,.66-.87,2.85,2.85,0,0,0,.07-1,2.29,2.29,0,0,0-.37-.91l-2.48-3.76a3.52,3.52,0,0,1-.54-1.24,4.08,4.08,0,0,1,.1-1.39,2.37,2.37,0,0,1,1.13-1.68,3.41,3.41,0,0,1,2.4-.17c1.92.41,2.7,1.46,2.34,3.13l-.33,1.52-1.26-.27.35-1.59a1.3,1.3,0,0,0-.21-1.1,1.93,1.93,0,0,0-1.18-.63,2,2,0,0,0-1.35.08,1.28,1.28,0,0,0-.62.9,3.2,3.2,0,0,0-.09,1,1.93,1.93,0,0,0,.39.87l2.54,3.77a3.55,3.55,0,0,1,.47,1.27A3.73,3.73,0,0,1,288.77,143.08Z" transform="translate(46)"/><path class="cls-4" d="M143.88,234.74l-1.25-.28,2.52-11.63,2.71.59a3.08,3.08,0,0,1,2,1.12,2.41,2.41,0,0,1,.33,2l-.66,3a2.51,2.51,0,0,1-1.12,1.71,3.17,3.17,0,0,1-2.27.18l-1.45-.31Zm4.37-5.43.66-3a1.43,1.43,0,0,0-.19-1.15,1.71,1.71,0,0,0-1.1-.63l-1.45-.31-1.28,5.9,1.45.32C147.4,230.63,148,230.27,148.25,229.31Zm10.65-1.15-1.56,7.16a2.37,2.37,0,0,1-1.17,1.69,3.5,3.5,0,0,1-2.41.15,3.56,3.56,0,0,1-2.14-1.14,2.38,2.38,0,0,1-.36-2l1.55-7.16a2.42,2.42,0,0,1,1.15-1.68,3.48,3.48,0,0,1,2.42-.16,3.52,3.52,0,0,1,2.15,1.15A2.36,2.36,0,0,1,158.9,228.16ZM156.09,235l1.55-7.16c.21-.95-.28-1.56-1.47-1.82s-1.9.09-2.11,1.05l-1.55,7.16c-.21.95.29,1.56,1.48,1.82S155.88,236,156.09,235Zm10.25,2.23q-.54,2.5-3.57,1.85c-2-.44-2.84-1.49-2.48-3.17l.33-1.52,1.26.28-.35,1.59a1.24,1.24,0,0,0,.23,1.1A2.12,2.12,0,0,0,163,238a2.07,2.07,0,0,0,1.4-.07,1.19,1.19,0,0,0,.66-.87,2.85,2.85,0,0,0,.07-1,2.15,2.15,0,0,0-.37-.91l-2.48-3.76a3.52,3.52,0,0,1-.54-1.24,4,4,0,0,1,.1-1.38,2.39,2.39,0,0,1,1.13-1.69,3.41,3.41,0,0,1,2.4-.17q2.88.63,2.34,3.13l-.33,1.52-1.26-.27.35-1.59a1.3,1.3,0,0,0-.21-1.1,1.9,1.9,0,0,0-1.18-.63,2,2,0,0,0-1.35.08,1.28,1.28,0,0,0-.62.9,3.22,3.22,0,0,0-.09,1,1.93,1.93,0,0,0,.39.87l2.54,3.78a3.44,3.44,0,0,1,.47,1.26A3.71,3.71,0,0,1,166.34,237.27Zm5-8.76,3.93.86-.23,1.07-2.68-.58-1.86,8.57a1.36,1.36,0,0,0,.06.9.93.93,0,0,0,.66.5.9.9,0,0,0,.81-.17,1.41,1.41,0,0,0,.43-.8l.47-2.13,1.25.27-.45,2.06a2.38,2.38,0,0,1-1,1.6,2.21,2.21,0,0,1-1.74.24,2.33,2.33,0,0,1-1.52-.94,2.37,2.37,0,0,1-.23-1.87Zm10,14.36-.54-.12-.21-1.25a3.2,3.2,0,0,1-1.21.83,2.57,2.57,0,0,1-1.43.08c-1.72-.37-2.39-1.39-2-3.06l.39-1.79q.54-2.51,3.12-1.95l2.08.45.63-2.93A1.29,1.29,0,0,0,182,232a1.89,1.89,0,0,0-1.14-.62q-1.59-.34-1.89,1l-.23,1-1.25-.27.21-1a2.48,2.48,0,0,1,1.1-1.7,3.93,3.93,0,0,1,4.3.94,2.4,2.4,0,0,1,.33,2Zm-.07-5.73-2.07-.46a1.28,1.28,0,0,0-1.12.16,1.7,1.7,0,0,0-.52,1l-.39,1.79a1.72,1.72,0,0,0,.06,1.12,1.27,1.27,0,0,0,1,.6,2.1,2.1,0,0,0,1.52-.27,1.86,1.86,0,0,0,.93-1Zm6.9,2.15.23-1.08,3.26.71-.8,3.67a2.41,2.41,0,0,1-1.13,1.7,4.18,4.18,0,0,1-4.42-1,2.36,2.36,0,0,1-.35-2l1.55-7.16a2.36,2.36,0,0,1,1.14-1.68,3.24,3.24,0,0,1,2.34-.19,3.31,3.31,0,0,1,2.08,1.15,2.37,2.37,0,0,1,.35,2l-.22,1-1.25-.28.22-1c.2-.95-.26-1.56-1.39-1.8s-1.81.11-2,1.06l-1.55,7.16c-.21,1,.26,1.56,1.39,1.8s1.8-.11,2-1.06l.56-2.6Zm10.39,5,.21-1,1.26.27-.22,1a2.46,2.46,0,0,1-1.13,1.71,3.4,3.4,0,0,1-2.35.16,3.46,3.46,0,0,1-2.08-1.12,2.41,2.41,0,0,1-.34-2l1.55-7.16a2.35,2.35,0,0,1,1.13-1.68,3.27,3.27,0,0,1,2.35-.19,3.41,3.41,0,0,1,2.08,1.15,2.37,2.37,0,0,1,.35,2l-.86,3.94-4.65-1-.7,3.22c-.21,1,.26,1.56,1.39,1.8S198.35,245.22,198.56,244.26Zm-1.85-7.9-.62,2.87,3.4.74.62-2.87q.31-1.42-1.38-1.8C197.59,235.06,196.92,235.41,196.71,236.36Zm16.23,11q-.54,2.51-3.57,1.85t-2.48-3.16l.33-1.52,1.26.27-.35,1.59a1.24,1.24,0,0,0,.23,1.1,2.12,2.12,0,0,0,1.25.65,2.2,2.2,0,0,0,1.4-.07,1.23,1.23,0,0,0,.66-.87,2.91,2.91,0,0,0,.07-1,2.2,2.2,0,0,0-.37-.9l-2.48-3.76a3.6,3.6,0,0,1-.54-1.24,4.08,4.08,0,0,1,.1-1.39,2.35,2.35,0,0,1,1.13-1.68,3.41,3.41,0,0,1,2.4-.18q2.88.63,2.34,3.13l-.33,1.53-1.26-.28.35-1.59a1.27,1.27,0,0,0-.21-1.09,2.48,2.48,0,0,0-2.53-.55,1.28,1.28,0,0,0-.62.89,3.24,3.24,0,0,0-.09,1,2,2,0,0,0,.39.88l2.54,3.77A3.55,3.55,0,0,1,213,246,3.66,3.66,0,0,1,212.94,247.38Zm7.61,1.65.21-1,1.26.27-.22,1a2.42,2.42,0,0,1-1.14,1.7,3.31,3.31,0,0,1-2.34.16,3.38,3.38,0,0,1-2.08-1.12,2.41,2.41,0,0,1-.34-2l1.55-7.16a2.37,2.37,0,0,1,1.13-1.68,3.22,3.22,0,0,1,2.35-.18,3.3,3.3,0,0,1,2.07,1.14,2.36,2.36,0,0,1,.36,2l-.86,3.93-4.65-1-.7,3.23c-.21.95.25,1.55,1.39,1.8S220.34,250,220.55,249Zm-1.85-7.89-.62,2.86,3.4.74.62-2.87c.21-1-.25-1.55-1.39-1.8S218.91,240.18,218.7,241.14Zm7.18,11.39-1.25-.27,2.52-11.63.54.11.23,1.44c.61-1,1.34-1.38,2.17-1.19,1.42.3,2,1.23,1.63,2.78l-.25,1.17-1.2-.26.26-1.24c.18-.79-.07-1.25-.72-1.39a1.4,1.4,0,0,0-1.24.44,3.42,3.42,0,0,0-.91,1.86Zm9.35,2-1.88-.4-.1-12.21,1.25.27.08,10.76,4.55-9.75,1.26.27Zm6.38,1.39-1.25-.27L242.88,244l1.26.27Zm8.44-.51.22-1,1.25.28-.21,1a2.45,2.45,0,0,1-1.14,1.7,3.3,3.3,0,0,1-2.34.17,3.39,3.39,0,0,1-2.08-1.13,2.39,2.39,0,0,1-.35-2l1.55-7.16a2.43,2.43,0,0,1,1.14-1.69,3.29,3.29,0,0,1,2.34-.18,3.35,3.35,0,0,1,2.08,1.14,2.36,2.36,0,0,1,.35,2l-.37,1.7-1.25-.27.37-1.7c.21-1-.26-1.56-1.39-1.8s-1.81.11-2,1.06l-1.56,7.16c-.2,1,.26,1.56,1.39,1.8S249.85,256.39,250.05,255.44Zm8.78,1.9.21-1,1.26.27-.22,1a2.44,2.44,0,0,1-1.14,1.7,3.31,3.31,0,0,1-2.34.16,3.38,3.38,0,0,1-2.08-1.12,2.45,2.45,0,0,1-.35-2l1.56-7.16a2.35,2.35,0,0,1,1.13-1.68,3.22,3.22,0,0,1,2.35-.18,3.3,3.3,0,0,1,2.07,1.14,2.36,2.36,0,0,1,.36,2l-.86,3.93-4.65-1-.7,3.22c-.21,1,.25,1.56,1.39,1.81S258.62,258.3,258.83,257.34ZM257,249.45l-.62,2.86,3.4.74.62-2.87c.21-1-.25-1.55-1.39-1.8S257.19,248.49,257,249.45Z" transform="translate(46)"/><path class="cls-5" d="M46,60.28V36.7h3.45V60.28Zm10.56,0L49.77,42.35H48.25V36.7h2.19l6.77,17.93H58v5.65Zm1,0V36.7H61V60.28Z" transform="translate(46)"/><path class="cls-5" d="M73.42,60.61a7,7,0,0,1-5.68-2.39,10.14,10.14,0,0,1-2-6.74,10.13,10.13,0,0,1,2-6.75,7,7,0,0,1,5.68-2.38,7,7,0,0,1,5.68,2.38q2,2.39,2,6.75a10.14,10.14,0,0,1-2,6.74A7,7,0,0,1,73.42,60.61Zm0-3.15a3.38,3.38,0,0,0,3-1.57,7.85,7.85,0,0,0,1.06-4.41,7.88,7.88,0,0,0-1.06-4.43,3.67,3.67,0,0,0-6,0,7.88,7.88,0,0,0-1.06,4.43,7.85,7.85,0,0,0,1.06,4.41A3.39,3.39,0,0,0,73.42,57.46Z" transform="translate(46)"/><path class="cls-5" d="M106,60.28V57.19h7v3.09Zm1-14.51V42.68h9.23v3.09Zm7.36-5.88a2.46,2.46,0,1,1,1.74-4.2,2.49,2.49,0,0,1,0,3.48A2.37,2.37,0,0,1,114.31,39.89Zm-1.65,20.39V43.68h3.52v16.6Zm3.19,0V57.19h5.74v3.09Z" transform="translate(46)"/><path class="cls-5" d="M125.08,60.28V42.68h3.12l.4,3.72V60.28Zm6.61,0V46.5c0-1-.47-1.5-1.4-1.5-1.13,0-1.69.8-1.69,2.39l-1-2.52h1.13c.13-1.68,1.14-2.52,3-2.52a2.68,2.68,0,0,1,2.17.94,4.46,4.46,0,0,1,.79,2.88V60.28Zm6.07,0V46.83c0-1.22-.45-1.83-1.36-1.83-1.15,0-1.72.8-1.72,2.39l-1.2-2.52h1.36a2.84,2.84,0,0,1,.82-1.78,2.93,2.93,0,0,1,2.14-.74,3.27,3.27,0,0,1,2.65,1,4.83,4.83,0,0,1,.83,3.17V60.28Z" transform="translate(46)"/><path class="cls-5" d="M150.51,60.61a6.21,6.21,0,0,1-4.26-1.33,4.7,4.7,0,0,1-1.51-3.75,4.93,4.93,0,0,1,2.08-4.28,9.94,9.94,0,0,1,5.88-1.5,19.65,19.65,0,0,1,2.82.19,10.07,10.07,0,0,1,2.2.58L157,52.91a11.16,11.16,0,0,0-2.18-.29c-.71,0-1.43,0-2.17,0-3.06,0-4.58.93-4.58,2.79a2.18,2.18,0,0,0,.78,1.8,3.51,3.51,0,0,0,2.24.63,6,6,0,0,0,2.75-.57,4,4,0,0,0,1.65-1.44A3.43,3.43,0,0,0,156,54V52l1,4.52h-1.39l.56-.53a4.38,4.38,0,0,1-.7,2.55,4.15,4.15,0,0,1-2,1.52A8.09,8.09,0,0,1,150.51,60.61Zm6.21-.17-.23-5.21L156,53.77V49.22a2.89,2.89,0,0,0-1.23-2.58,7.1,7.1,0,0,0-3.68-.89l-4.22-.12.34-3.12,3.55.05q4.36.07,6.48,1.89a6.61,6.61,0,0,1,2.12,5.3v7.34l3,.37v2.82Z" transform="translate(46)"/><path class="cls-5" d="M171.68,60.61a6.26,6.26,0,0,1-5.24-2.28q-1.78-2.27-1.78-6.69t1.78-6.93a6.15,6.15,0,0,1,5.24-2.36,5.57,5.57,0,0,1,3.34.93,3.62,3.62,0,0,1,1.49,2.59h1.36l-1.19,5a6.78,6.78,0,0,0-1.07-4.13,3.73,3.73,0,0,0-3.15-1.41,3.66,3.66,0,0,0-3.22,1.59,8.32,8.32,0,0,0-1.1,4.71,7.6,7.6,0,0,0,1.1,4.47,4.21,4.21,0,0,0,6.37.1,6.78,6.78,0,0,0,1.07-4.13l1.19,5h-1.52a3.54,3.54,0,0,1-1.41,2.59A5.28,5.28,0,0,1,171.68,60.61Zm-5.59,7.6L165.92,65l5.64-.16a5.13,5.13,0,0,0,3.89-1.48,6.14,6.14,0,0,0,1.23-4.1V46.4l.33-3.72h3.19v16c0,3.13-.72,5.44-2.14,6.94s-3.71,2.29-6.83,2.39Z" transform="translate(46)"/><path class="cls-5" d="M194.47,60.61q-4.5,0-6.94-2.37c-1.64-1.57-2.45-3.84-2.45-6.79a9.92,9.92,0,0,1,2.07-6.71A7.34,7.34,0,0,1,193,42.35a7.05,7.05,0,0,1,5.52,2.16c1.3,1.43,1.95,3.53,1.95,6.27,0,.81,0,1.56-.1,2.26H188V50.35h9.27a5.31,5.31,0,0,0-1.13-3.64,4,4,0,0,0-3.12-1.27A4.2,4.2,0,0,0,189.57,47a6.68,6.68,0,0,0-1.24,4.32,6.07,6.07,0,0,0,1.7,4.65,6.84,6.84,0,0,0,4.84,1.59A19.28,19.28,0,0,0,197,57.4c.71-.09,1.43-.2,2.16-.34l.43,3.08a24.09,24.09,0,0,1-2.85.39C195.9,60.58,195.14,60.61,194.47,60.61Z" transform="translate(46)"/><path class="cls-5" d="M230.2,60.61a6.24,6.24,0,0,1-4.27-1.33,4.74,4.74,0,0,1-1.51-3.75,4.94,4.94,0,0,1,2.09-4.28,9.94,9.94,0,0,1,5.88-1.5,19.76,19.76,0,0,1,2.82.19,10.22,10.22,0,0,1,2.2.58l-.74,2.39a11.06,11.06,0,0,0-2.17-.29c-.71,0-1.43,0-2.17,0q-4.59,0-4.59,2.79a2.19,2.19,0,0,0,.79,1.8,3.5,3.5,0,0,0,2.23.63,5.93,5.93,0,0,0,2.75-.57,3.92,3.92,0,0,0,1.65-1.44,3.35,3.35,0,0,0,.55-1.81V52l1,4.52h-1.39l.56-.53a4.38,4.38,0,0,1-.7,2.55,4.2,4.2,0,0,1-2,1.52A8.13,8.13,0,0,1,230.2,60.61Zm6.21-.17-.23-5.21-.47-1.46V49.22a2.89,2.89,0,0,0-1.23-2.58,7.13,7.13,0,0,0-3.68-.89l-4.22-.12.33-3.12,3.56.05q4.36.07,6.48,1.89a6.61,6.61,0,0,1,2.12,5.3v7.34l3,.37v2.82Z" transform="translate(46)"/><path class="cls-5" d="M250.37,60.28l-6.29-17.6h3.75l4.73,14.61h.3l4.73-14.61h3.75l-6.29,17.6Z" transform="translate(46)"/><path class="cls-5" d="M270,60.61a6.21,6.21,0,0,1-4.26-1.33,4.7,4.7,0,0,1-1.51-3.75,4.93,4.93,0,0,1,2.08-4.28,10,10,0,0,1,5.89-1.5,19.61,19.61,0,0,1,2.81.19,10.07,10.07,0,0,1,2.2.58l-.73,2.39a11.16,11.16,0,0,0-2.18-.29c-.7,0-1.43,0-2.17,0-3.06,0-4.58.93-4.58,2.79a2.16,2.16,0,0,0,.79,1.8,3.48,3.48,0,0,0,2.23.63,6,6,0,0,0,2.75-.57A4,4,0,0,0,275,55.78a3.44,3.44,0,0,0,.55-1.81V52l1,4.52h-1.39l.56-.53a4.38,4.38,0,0,1-.7,2.55,4.17,4.17,0,0,1-2,1.52A8.18,8.18,0,0,1,270,60.61Zm6.21-.17L276,55.23l-.46-1.46V49.22a2.89,2.89,0,0,0-1.24-2.58,7.1,7.1,0,0,0-3.68-.89l-4.22-.12.34-3.12,3.55.05q4.37.07,6.48,1.89a6.61,6.61,0,0,1,2.12,5.3v7.34l3,.37v2.82Z" transform="translate(46)"/><path class="cls-5" d="M285.25,60.28V57.19h7v3.09Zm1-14.51V42.68h9.23v3.09Zm7.35-5.88a2.46,2.46,0,1,1,0-4.91,2.33,2.33,0,0,1,1.74.71,2.46,2.46,0,0,1,0,3.48A2.34,2.34,0,0,1,293.6,39.89ZM292,60.28V43.68h3.52v16.6Zm3.19,0V57.19h5.74v3.09Z" transform="translate(46)"/><path class="cls-5" d="M304.14,38.46V35.38h5.48v3.08Zm11,22.15q-3.06,0-4.42-1.66c-.9-1.11-1.36-2.88-1.36-5.31V35.38h3.52V53.47a8,8,0,0,0,.27,2.28,2.11,2.11,0,0,0,1,1.29,4.87,4.87,0,0,0,2.28.42,12.73,12.73,0,0,0,3.52-.64l.4,3.09a18.93,18.93,0,0,1-2.59.53A20.06,20.06,0,0,1,315.1,60.61Z" transform="translate(46)"/><path class="cls-5" d="M329.81,60.61a6.24,6.24,0,0,1-4.27-1.33A4.74,4.74,0,0,1,324,55.53a4.94,4.94,0,0,1,2.09-4.28,9.92,9.92,0,0,1,5.88-1.5,19.76,19.76,0,0,1,2.82.19,10,10,0,0,1,2.19.58l-.73,2.39a11.06,11.06,0,0,0-2.17-.29c-.71,0-1.43,0-2.18,0q-4.57,0-4.58,2.79a2.19,2.19,0,0,0,.79,1.8,3.5,3.5,0,0,0,2.23.63,5.93,5.93,0,0,0,2.75-.57,3.92,3.92,0,0,0,1.65-1.44,3.35,3.35,0,0,0,.55-1.81V52l1,4.52H335l.56-.53a4.38,4.38,0,0,1-.7,2.55,4.25,4.25,0,0,1-2,1.52A8.13,8.13,0,0,1,329.81,60.61Zm6.21-.17-.23-5.21-.47-1.46V49.22a2.87,2.87,0,0,0-1.24-2.58,7.06,7.06,0,0,0-3.67-.89l-4.22-.12.33-3.12,3.56.05q4.37.07,6.48,1.89a6.6,6.6,0,0,1,2.11,5.3v7.34l3,.37v2.82Z" transform="translate(46)"/><path class="cls-5" d="M345.07,60.28V35.38h3.52V60Zm4.71.33c-.8,0-1.58,0-2.36-.09s-1.56-.14-2.35-.24l1.36-3.22a5.49,5.49,0,0,0,1.94.49c.71.05,1.41.07,2.11.07a6.28,6.28,0,0,0,4.9-1.91,7.71,7.71,0,0,0,1.74-5.39,5.71,5.71,0,0,0-1.05-3.69,3.67,3.67,0,0,0-3-1.29q-4.49,0-4.48,5l-1-4.51h1.36q.24-3.52,4.31-3.52a7.07,7.07,0,0,1,5.45,2.07,8.38,8.38,0,0,1,1.93,5.9q0,4.89-2.84,7.59C355.89,59.71,353.22,60.61,349.78,60.61Z" transform="translate(46)"/><path class="cls-5" d="M363.91,38.46V35.38h5.48v3.08Zm11,22.15q-3.06,0-4.42-1.66t-1.36-5.31V35.38h3.52V53.47a8.41,8.41,0,0,0,.26,2.28,2.14,2.14,0,0,0,1,1.29,4.92,4.92,0,0,0,2.28.42,12.67,12.67,0,0,0,3.52-.64l.4,3.09a18.5,18.5,0,0,1-2.58.53A20.06,20.06,0,0,1,374.87,60.61Z" transform="translate(46)"/><path class="cls-5" d="M393.69,60.61q-4.5,0-6.94-2.37c-1.64-1.57-2.45-3.84-2.45-6.79a9.92,9.92,0,0,1,2.07-6.71,7.32,7.32,0,0,1,5.86-2.39,7.05,7.05,0,0,1,5.52,2.16c1.3,1.43,1.95,3.53,1.95,6.27,0,.81,0,1.56-.1,2.26H387.25V50.35h9.26a5.3,5.3,0,0,0-1.12-3.64,4,4,0,0,0-3.13-1.27A4.2,4.2,0,0,0,388.79,47a6.68,6.68,0,0,0-1.24,4.32,6.07,6.07,0,0,0,1.7,4.65,6.84,6.84,0,0,0,4.84,1.59,19.28,19.28,0,0,0,2.16-.12c.71-.09,1.43-.2,2.16-.34l.43,3.08a24,24,0,0,1-2.86.39C395.12,60.58,394.36,60.61,393.69,60.61Z" transform="translate(46)"/><path class="cls-5" d="M35.45,353.12V329.54h3.46v23.58Zm10.56,0-6.77-17.93H37.71v-5.65H39.9l6.78,17.93h.83v5.65Zm1,0V329.54h3.45v23.58Z" transform="translate(46)"/><path class="cls-5" d="M62.88,353.45a7,7,0,0,1-5.68-2.39,10.12,10.12,0,0,1-2-6.74q0-4.36,2-6.75a7,7,0,0,1,5.68-2.38,7,7,0,0,1,5.68,2.38q2,2.39,2,6.75a10.12,10.12,0,0,1-2,6.74A7,7,0,0,1,62.88,353.45Zm0-3.15a3.42,3.42,0,0,0,3-1.56,9.83,9.83,0,0,0,0-8.84,3.66,3.66,0,0,0-6,0,9.83,9.83,0,0,0,0,8.84A3.4,3.4,0,0,0,62.88,350.3Z" transform="translate(46)"/><path class="cls-5" d="M95.42,353.12V350h7v3.09Zm1-14.51v-3.09h9.23v3.09Zm7.36-5.88a2.46,2.46,0,0,1-1.74-4.2,2.42,2.42,0,0,1,1.74-.71,2.45,2.45,0,0,1,1.74,4.19A2.35,2.35,0,0,1,103.77,332.73Zm-1.65,20.39v-16.6h3.52v16.6Zm3.19,0V350h5.75v3.09Z" transform="translate(46)"/><path class="cls-5" d="M114.54,353.12v-17.6h3.12l.4,3.72v13.88Zm6.61,0V339.34c0-1-.46-1.49-1.39-1.49-1.13,0-1.7.79-1.7,2.39l-1-2.53h1.13c.13-1.68,1.14-2.52,3-2.52a2.66,2.66,0,0,1,2.17.95,4.37,4.37,0,0,1,.79,2.87v14.11Zm6.08,0V339.67c0-1.22-.46-1.82-1.36-1.82-1.16,0-1.73.79-1.73,2.39l-1.2-2.53h1.36a2.75,2.75,0,0,1,.83-1.77,2.85,2.85,0,0,1,2.13-.75,3.32,3.32,0,0,1,2.66,1,4.89,4.89,0,0,1,.83,3.17v13.78Z" transform="translate(46)"/><path class="cls-5" d="M140,353.45a6.24,6.24,0,0,1-4.27-1.33,4.7,4.7,0,0,1-1.51-3.75,4.93,4.93,0,0,1,2.08-4.28,10,10,0,0,1,5.89-1.5,19.51,19.51,0,0,1,2.81.19,9.92,9.92,0,0,1,2.2.58l-.73,2.39a12,12,0,0,0-2.17-.29c-.71,0-1.44,0-2.18,0q-4.57,0-4.58,2.79a2.15,2.15,0,0,0,.79,1.79,3.48,3.48,0,0,0,2.23.63,6,6,0,0,0,2.75-.57,4,4,0,0,0,1.65-1.44,3.35,3.35,0,0,0,.55-1.81v-1.93l1,4.52h-1.4l.57-.53a4.38,4.38,0,0,1-.71,2.55,4.17,4.17,0,0,1-2,1.52A8.13,8.13,0,0,1,140,353.45Zm6.21-.16-.24-5.22-.46-1.46v-4.55a2.87,2.87,0,0,0-1.24-2.58,7.07,7.07,0,0,0-3.68-.89l-4.21-.11.33-3.12,3.55.05q4.37.06,6.49,1.88a6.6,6.6,0,0,1,2.11,5.3v7.34l3,.37v2.82Z" transform="translate(46)"/><path class="cls-5" d="M161.14,353.45a6.26,6.26,0,0,1-5.23-2.27q-1.78-2.28-1.79-6.69,0-4.59,1.79-6.94a6.16,6.16,0,0,1,5.23-2.36,5.53,5.53,0,0,1,3.34.93,3.62,3.62,0,0,1,1.49,2.59h1.37l-1.2,5a6.78,6.78,0,0,0-1.07-4.13,4.14,4.14,0,0,0-6.37.18,8.36,8.36,0,0,0-1.09,4.72A7.54,7.54,0,0,0,158.7,349a4.21,4.21,0,0,0,6.37.1,6.78,6.78,0,0,0,1.07-4.13l1.2,5h-1.53a3.53,3.53,0,0,1-1.4,2.59A5.33,5.33,0,0,1,161.14,353.45Zm-5.59,7.6-.17-3.22,5.65-.16a5.13,5.13,0,0,0,3.88-1.48,6.14,6.14,0,0,0,1.23-4.1V339.24l.33-3.72h3.19v16q0,4.69-2.14,6.94t-6.82,2.39Z" transform="translate(46)"/><path class="cls-5" d="M183.94,353.45q-4.5,0-6.95-2.37c-1.63-1.57-2.45-3.84-2.45-6.79a9.87,9.87,0,0,1,2.08-6.71,7.34,7.34,0,0,1,5.86-2.39,7.05,7.05,0,0,1,5.52,2.16q2,2.16,1.95,6.27c0,.81,0,1.56-.1,2.26H177.5v-2.69h9.26a5.31,5.31,0,0,0-1.13-3.64,3.94,3.94,0,0,0-3.12-1.27A4.26,4.26,0,0,0,179,339.8a6.73,6.73,0,0,0-1.24,4.32,6,6,0,0,0,1.71,4.65,6.8,6.8,0,0,0,4.84,1.59,19,19,0,0,0,2.15-.12c.71-.08,1.43-.2,2.16-.34l.43,3.09a23.92,23.92,0,0,1-2.85.38C185.37,353.42,184.6,353.45,183.94,353.45Z" transform="translate(46)"/><path class="cls-5" d="M219.66,353.45a6.21,6.21,0,0,1-4.26-1.33,4.7,4.7,0,0,1-1.51-3.75,4.93,4.93,0,0,1,2.08-4.28,10,10,0,0,1,5.89-1.5,19.61,19.61,0,0,1,2.81.19,10.07,10.07,0,0,1,2.2.58l-.73,2.39a12,12,0,0,0-2.18-.29c-.71,0-1.43,0-2.17,0-3.06,0-4.58.93-4.58,2.79A2.15,2.15,0,0,0,218,350a3.48,3.48,0,0,0,2.23.63,6,6,0,0,0,2.75-.57,4,4,0,0,0,1.65-1.44,3.44,3.44,0,0,0,.55-1.81v-1.93l1,4.52h-1.4l.57-.53a4.38,4.38,0,0,1-.71,2.55,4.17,4.17,0,0,1-2,1.52A8.18,8.18,0,0,1,219.66,353.45Zm6.21-.16-.23-5.22-.46-1.46v-4.55a2.89,2.89,0,0,0-1.24-2.58,7.1,7.1,0,0,0-3.68-.89l-4.22-.11.34-3.12,3.55.05q4.37.06,6.48,1.88a6.61,6.61,0,0,1,2.12,5.3v7.34l3,.37v2.82Z" transform="translate(46)"/><path class="cls-5" d="M239.83,353.12l-6.29-17.6h3.75L242,350.13h.3l4.73-14.61h3.75l-6.29,17.6Z" transform="translate(46)"/><path class="cls-5" d="M259.51,353.45a6.24,6.24,0,0,1-4.27-1.33,4.7,4.7,0,0,1-1.51-3.75,4.93,4.93,0,0,1,2.08-4.28,10,10,0,0,1,5.89-1.5,19.51,19.51,0,0,1,2.81.19,9.92,9.92,0,0,1,2.2.58l-.73,2.39a11.87,11.87,0,0,0-2.17-.29c-.71,0-1.44,0-2.18,0q-4.58,0-4.58,2.79a2.15,2.15,0,0,0,.79,1.79,3.5,3.5,0,0,0,2.23.63,6,6,0,0,0,2.75-.57,3.92,3.92,0,0,0,1.65-1.44,3.35,3.35,0,0,0,.55-1.81v-1.93l1,4.52h-1.4l.57-.53a4.38,4.38,0,0,1-.71,2.55,4.17,4.17,0,0,1-2,1.52A8.13,8.13,0,0,1,259.51,353.45Zm6.21-.16-.24-5.22-.46-1.46v-4.55a2.87,2.87,0,0,0-1.24-2.58,7.06,7.06,0,0,0-3.67-.89l-4.22-.11.33-3.12,3.55.05c2.91,0,5.08.67,6.49,1.88a6.6,6.6,0,0,1,2.11,5.3v7.34l3,.37v2.82Z" transform="translate(46)"/><path class="cls-5" d="M274.71,353.12V350h7v3.09Zm1-14.51v-3.09h9.23v3.09Zm7.36-5.88a2.46,2.46,0,0,1-1.74-4.2,2.46,2.46,0,0,1,3.48,3.48A2.37,2.37,0,0,1,283.07,332.73Zm-1.65,20.39v-16.6h3.52v16.6Zm3.19,0V350h5.74v3.09Z" transform="translate(46)"/><path class="cls-5" d="M293.61,331.3v-3.08h5.48v3.08Zm10.95,22.15a5.38,5.38,0,0,1-4.41-1.66q-1.36-1.67-1.36-5.31V328.22h3.52v18.09a8.41,8.41,0,0,0,.26,2.28,2.11,2.11,0,0,0,1,1.29,4.9,4.9,0,0,0,2.28.42,13,13,0,0,0,3.52-.63l.4,3.08a20.89,20.89,0,0,1-2.58.54A20.28,20.28,0,0,1,304.56,353.45Z" transform="translate(46)"/><path class="cls-5" d="M319.27,353.45a6.21,6.21,0,0,1-4.26-1.33,4.7,4.7,0,0,1-1.51-3.75,4.93,4.93,0,0,1,2.08-4.28,9.94,9.94,0,0,1,5.88-1.5,19.65,19.65,0,0,1,2.82.19,10.07,10.07,0,0,1,2.2.58l-.73,2.39a12,12,0,0,0-2.18-.29c-.7,0-1.43,0-2.17,0-3.06,0-4.58.93-4.58,2.79a2.15,2.15,0,0,0,.79,1.79,3.48,3.48,0,0,0,2.23.63,6,6,0,0,0,2.75-.57,4,4,0,0,0,1.65-1.44,3.44,3.44,0,0,0,.55-1.81v-1.93l1,4.52h-1.39l.56-.53a4.38,4.38,0,0,1-.7,2.55,4.15,4.15,0,0,1-2,1.52A8.09,8.09,0,0,1,319.27,353.45Zm6.21-.16-.23-5.22-.46-1.46v-4.55a2.89,2.89,0,0,0-1.24-2.58,7.1,7.1,0,0,0-3.68-.89l-4.22-.11.34-3.12,3.55.05q4.36.06,6.48,1.88a6.61,6.61,0,0,1,2.12,5.3v7.34l3,.37v2.82Z" transform="translate(46)"/><path class="cls-5" d="M334.53,353.12v-24.9h3.52v24.6Zm4.72.33c-.8,0-1.59,0-2.36-.09s-1.56-.14-2.36-.24l1.36-3.22a5.6,5.6,0,0,0,1.94.49c.71.05,1.42.07,2.11.07a6.27,6.27,0,0,0,4.91-1.91,7.76,7.76,0,0,0,1.73-5.39,5.73,5.73,0,0,0-1.05-3.69,3.65,3.65,0,0,0-3-1.29q-4.48,0-4.48,5l-1-4.51h1.36q.25-3.52,4.32-3.52a7.06,7.06,0,0,1,5.44,2.07,8.34,8.34,0,0,1,1.93,5.9c0,3.26-.94,5.8-2.83,7.59S342.69,353.45,339.25,353.45Z" transform="translate(46)"/><path class="cls-5" d="M353.37,331.3v-3.08h5.48v3.08Zm11,22.15q-3.06,0-4.42-1.66c-.9-1.11-1.36-2.88-1.36-5.31V328.22h3.52v18.09a8,8,0,0,0,.27,2.28,2,2,0,0,0,1,1.29,4.87,4.87,0,0,0,2.28.42,13,13,0,0,0,3.52-.63l.4,3.08a20.66,20.66,0,0,1-2.59.54A20.12,20.12,0,0,1,364.33,353.45Z" transform="translate(46)"/><path class="cls-5" d="M383.16,353.45q-4.5,0-7-2.37c-1.63-1.57-2.45-3.84-2.45-6.79a9.92,9.92,0,0,1,2.07-6.71,7.38,7.38,0,0,1,5.87-2.39,7,7,0,0,1,5.51,2.16q2,2.16,2,6.27c0,.81,0,1.56-.1,2.26H376.71v-2.69H386a5.31,5.31,0,0,0-1.13-3.64,3.94,3.94,0,0,0-3.12-1.27,4.24,4.24,0,0,0-3.48,1.52,6.73,6.73,0,0,0-1.24,4.32,6.07,6.07,0,0,0,1.7,4.65,6.84,6.84,0,0,0,4.84,1.59,19.15,19.15,0,0,0,2.16-.12c.71-.08,1.43-.2,2.16-.34l.43,3.09a23.92,23.92,0,0,1-2.85.38C384.58,353.42,383.82,353.45,383.16,353.45Z" transform="translate(46)"/></svg>